{
	"asset":{
		"generator":"Khronos glTF Blender I/O v5.0.21",
		"version":"2.0"
	},
	"scene":0,
	"scenes":[
		{
			"name":"Scene",
			"nodes":[
				18
			]
		}
	],
	"nodes":[
		{
			"name":"Bone.003",
			"translation":[
				9.129799138918315e-10,
				0.3872382640838623,
				-1.0658141036401503e-13
			]
		},
		{
			"name":"Bone.005",
			"rotation":[
				2.1316282072803006e-14,
				-3.552713678800501e-15,
				9.317644339752168e-22,
				1
			],
			"translation":[
				5.0887205560457e-10,
				0.4832526445388794,
				-7.175695801442394e-12
			]
		},
		{
			"children":[
				1
			],
			"name":"Bone.004",
			"rotation":[
				9.974798587109035e-08,
				-6.883936976009863e-08,
				-0.7071067690849304,
				0.7071067690849304
			],
			"translation":[
				0.22917374968528748,
				0.26585960388183594,
				2.390410429597978e-07
			]
		},
		{
			"name":"Bone.011",
			"rotation":[
				-2.4829246189454757e-14,
				9.695035885215475e-10,
				-1.2185526543362357e-07,
				1
			],
			"translation":[
				2.3603519139214768e-07,
				0.4832526445388794,
				-6.128288987383712e-10
			]
		},
		{
			"children":[
				3
			],
			"name":"Bone.010",
			"rotation":[
				-1.1910821662297622e-08,
				-1.566765632787792e-07,
				0.7071067690849304,
				0.7071067690849304
			],
			"scale":[
				0.9999999403953552,
				0.9999999403953552,
				1
			],
			"translation":[
				-0.2361951768398285,
				0.26585936546325684,
				1.280884447396602e-07
			]
		},
		{
			"children":[
				0,
				2,
				4
			],
			"name":"Bone.002",
			"rotation":[
				0,
				1.4210854715202004e-14,
				0,
				1
			],
			"translation":[
				9.129796918472266e-10,
				0.6318094730377197,
				-1.056932319443149e-13
			]
		},
		{
			"children":[
				5
			],
			"name":"Bone.001",
			"rotation":[
				0,
				1.1920927533992653e-07,
				0,
				1
			],
			"translation":[
				0,
				0.3242809772491455,
				0
			]
		},
		{
			"name":"Bone.007",
			"rotation":[
				-1.2205265420561773e-07,
				-1.043081283569336e-07,
				1.076886402273658e-08,
				1
			],
			"translation":[
				-5.79574166437169e-09,
				0.6870620846748352,
				-7.624933573424642e-09
			]
		},
		{
			"children":[
				7
			],
			"name":"Bone.006",
			"rotation":[
				-0.9140901565551758,
				3.965000416883413e-08,
				0.4055110812187195,
				1.1593401438858564e-07
			],
			"translation":[
				0.32201912999153137,
				0.14085257053375244,
				1.0523945093154907e-07
			]
		},
		{
			"name":"Bone.009",
			"rotation":[
				-1.0597415212032502e-07,
				-1.043081283569336e-07,
				4.70125449680836e-08,
				1
			],
			"translation":[
				8.154046327035758e-10,
				0.6870619654655457,
				3.004170423537289e-08
			]
		},
		{
			"children":[
				9
			],
			"name":"Bone.008",
			"rotation":[
				-0.9140901565551758,
				0,
				0.4055110812187195,
				1.15934021494013e-07
			],
			"translation":[
				-0.3260952830314636,
				0.14085257053375244,
				1.0523945093154907e-07
			]
		},
		{
			"children":[
				6,
				8,
				10
			],
			"name":"Bone"
		},
		{
			"mesh":0,
			"name":"ArmL",
			"skin":0
		},
		{
			"mesh":1,
			"name":"ArmR",
			"skin":0
		},
		{
			"mesh":2,
			"name":"Body",
			"skin":0
		},
		{
			"mesh":3,
			"name":"Head",
			"skin":0
		},
		{
			"mesh":4,
			"name":"LegL",
			"skin":0
		},
		{
			"mesh":5,
			"name":"LegR",
			"skin":0
		},
		{
			"children":[
				12,
				13,
				14,
				15,
				16,
				17,
				11
			],
			"name":"Employee",
			"translation":[
				-0.027344197034835815,
				1.2284247875213623,
				-0.011641815304756165
			]
		}
	],
	"animations":[
		{
			"channels":[
				{
					"sampler":0,
					"target":{
						"node":11,
						"path":"translation"
					}
				},
				{
					"sampler":1,
					"target":{
						"node":11,
						"path":"rotation"
					}
				},
				{
					"sampler":2,
					"target":{
						"node":11,
						"path":"scale"
					}
				},
				{
					"sampler":3,
					"target":{
						"node":6,
						"path":"translation"
					}
				},
				{
					"sampler":4,
					"target":{
						"node":6,
						"path":"rotation"
					}
				},
				{
					"sampler":5,
					"target":{
						"node":6,
						"path":"scale"
					}
				},
				{
					"sampler":6,
					"target":{
						"node":5,
						"path":"translation"
					}
				},
				{
					"sampler":7,
					"target":{
						"node":5,
						"path":"rotation"
					}
				},
				{
					"sampler":8,
					"target":{
						"node":5,
						"path":"scale"
					}
				},
				{
					"sampler":9,
					"target":{
						"node":0,
						"path":"translation"
					}
				},
				{
					"sampler":10,
					"target":{
						"node":0,
						"path":"rotation"
					}
				},
				{
					"sampler":11,
					"target":{
						"node":0,
						"path":"scale"
					}
				},
				{
					"sampler":12,
					"target":{
						"node":2,
						"path":"translation"
					}
				},
				{
					"sampler":13,
					"target":{
						"node":2,
						"path":"rotation"
					}
				},
				{
					"sampler":14,
					"target":{
						"node":2,
						"path":"scale"
					}
				},
				{
					"sampler":15,
					"target":{
						"node":1,
						"path":"translation"
					}
				},
				{
					"sampler":16,
					"target":{
						"node":1,
						"path":"rotation"
					}
				},
				{
					"sampler":17,
					"target":{
						"node":1,
						"path":"scale"
					}
				},
				{
					"sampler":18,
					"target":{
						"node":4,
						"path":"translation"
					}
				},
				{
					"sampler":19,
					"target":{
						"node":4,
						"path":"rotation"
					}
				},
				{
					"sampler":20,
					"target":{
						"node":4,
						"path":"scale"
					}
				},
				{
					"sampler":21,
					"target":{
						"node":3,
						"path":"translation"
					}
				},
				{
					"sampler":22,
					"target":{
						"node":3,
						"path":"rotation"
					}
				},
				{
					"sampler":23,
					"target":{
						"node":3,
						"path":"scale"
					}
				},
				{
					"sampler":24,
					"target":{
						"node":8,
						"path":"translation"
					}
				},
				{
					"sampler":25,
					"target":{
						"node":8,
						"path":"rotation"
					}
				},
				{
					"sampler":26,
					"target":{
						"node":8,
						"path":"scale"
					}
				},
				{
					"sampler":27,
					"target":{
						"node":7,
						"path":"translation"
					}
				},
				{
					"sampler":28,
					"target":{
						"node":7,
						"path":"rotation"
					}
				},
				{
					"sampler":29,
					"target":{
						"node":7,
						"path":"scale"
					}
				},
				{
					"sampler":30,
					"target":{
						"node":10,
						"path":"translation"
					}
				},
				{
					"sampler":31,
					"target":{
						"node":10,
						"path":"rotation"
					}
				},
				{
					"sampler":32,
					"target":{
						"node":10,
						"path":"scale"
					}
				},
				{
					"sampler":33,
					"target":{
						"node":9,
						"path":"translation"
					}
				},
				{
					"sampler":34,
					"target":{
						"node":9,
						"path":"rotation"
					}
				},
				{
					"sampler":35,
					"target":{
						"node":9,
						"path":"scale"
					}
				}
			],
			"name":"Sit",
			"samplers":[
				{
					"input":35,
					"interpolation":"STEP",
					"output":36
				},
				{
					"input":35,
					"interpolation":"STEP",
					"output":37
				},
				{
					"input":35,
					"interpolation":"STEP",
					"output":38
				},
				{
					"input":35,
					"interpolation":"STEP",
					"output":39
				},
				{
					"input":35,
					"interpolation":"STEP",
					"output":40
				},
				{
					"input":35,
					"interpolation":"STEP",
					"output":38
				},
				{
					"input":35,
					"interpolation":"STEP",
					"output":41
				},
				{
					"input":35,
					"interpolation":"STEP",
					"output":42
				},
				{
					"input":35,
					"interpolation":"STEP",
					"output":38
				},
				{
					"input":35,
					"interpolation":"STEP",
					"output":43
				},
				{
					"input":35,
					"interpolation":"STEP",
					"output":44
				},
				{
					"input":35,
					"interpolation":"STEP",
					"output":38
				},
				{
					"input":35,
					"interpolation":"STEP",
					"output":45
				},
				{
					"input":35,
					"interpolation":"STEP",
					"output":46
				},
				{
					"input":35,
					"interpolation":"STEP",
					"output":47
				},
				{
					"input":35,
					"interpolation":"STEP",
					"output":48
				},
				{
					"input":35,
					"interpolation":"STEP",
					"output":49
				},
				{
					"input":35,
					"interpolation":"STEP",
					"output":50
				},
				{
					"input":35,
					"interpolation":"STEP",
					"output":51
				},
				{
					"input":35,
					"interpolation":"STEP",
					"output":52
				},
				{
					"input":35,
					"interpolation":"STEP",
					"output":53
				},
				{
					"input":35,
					"interpolation":"STEP",
					"output":54
				},
				{
					"input":35,
					"interpolation":"STEP",
					"output":55
				},
				{
					"input":35,
					"interpolation":"STEP",
					"output":56
				},
				{
					"input":35,
					"interpolation":"STEP",
					"output":57
				},
				{
					"input":35,
					"interpolation":"STEP",
					"output":58
				},
				{
					"input":35,
					"interpolation":"STEP",
					"output":59
				},
				{
					"input":35,
					"interpolation":"STEP",
					"output":60
				},
				{
					"input":35,
					"interpolation":"STEP",
					"output":61
				},
				{
					"input":35,
					"interpolation":"STEP",
					"output":62
				},
				{
					"input":35,
					"interpolation":"STEP",
					"output":63
				},
				{
					"input":35,
					"interpolation":"STEP",
					"output":64
				},
				{
					"input":35,
					"interpolation":"STEP",
					"output":65
				},
				{
					"input":35,
					"interpolation":"STEP",
					"output":66
				},
				{
					"input":35,
					"interpolation":"STEP",
					"output":67
				},
				{
					"input":35,
					"interpolation":"STEP",
					"output":38
				}
			]
		}
	],
	"materials":[
		{
			"doubleSided":true,
			"name":"Abu SMA",
			"pbrMetallicRoughness":{
				"baseColorTexture":{
					"index":0
				},
				"metallicFactor":0,
				"roughnessFactor":0.5
			}
		}
	],
	"meshes":[
		{
			"name":"Cube.005",
			"primitives":[
				{
					"attributes":{
						"POSITION":0,
						"NORMAL":1,
						"TEXCOORD_0":2,
						"JOINTS_0":3,
						"WEIGHTS_0":4
					},
					"indices":5,
					"material":0
				}
			]
		},
		{
			"name":"Cube.002",
			"primitives":[
				{
					"attributes":{
						"POSITION":7,
						"NORMAL":8,
						"TEXCOORD_0":9,
						"JOINTS_0":10,
						"WEIGHTS_0":11
					},
					"indices":5,
					"material":0
				}
			]
		},
		{
			"name":"Cube.001",
			"primitives":[
				{
					"attributes":{
						"POSITION":12,
						"NORMAL":13,
						"TEXCOORD_0":14,
						"JOINTS_0":15,
						"WEIGHTS_0":16
					},
					"indices":17,
					"material":0
				}
			]
		},
		{
			"name":"Sphere.001",
			"primitives":[
				{
					"attributes":{
						"POSITION":18,
						"NORMAL":19,
						"TEXCOORD_0":20,
						"JOINTS_0":21,
						"WEIGHTS_0":22
					},
					"indices":23,
					"material":0
				}
			]
		},
		{
			"name":"Cube.004",
			"primitives":[
				{
					"attributes":{
						"POSITION":24,
						"NORMAL":25,
						"TEXCOORD_0":26,
						"JOINTS_0":27,
						"WEIGHTS_0":28
					},
					"indices":29,
					"material":0
				}
			]
		},
		{
			"name":"Cube.003",
			"primitives":[
				{
					"attributes":{
						"POSITION":30,
						"NORMAL":31,
						"TEXCOORD_0":32,
						"JOINTS_0":33,
						"WEIGHTS_0":34
					},
					"indices":29,
					"material":0
				}
			]
		}
	],
	"textures":[
		{
			"sampler":0,
			"source":0
		}
	],
	"images":[
		{
			"mimeType":"image/png",
			"name":"NPC Color",
			"uri":"NPC%20Color.png"
		}
	],
	"skins":[
		{
			"inverseBindMatrices":6,
			"joints":[
				11,
				6,
				5,
				0,
				2,
				1,
				4,
				3,
				8,
				7,
				10,
				9
			],
			"name":"Employee"
		}
	],
	"accessors":[
		{
			"bufferView":0,
			"componentType":5126,
			"count":40,
			"max":[
				-0.21868711709976196,
				2.569418430328369,
				0.11360020935535431
			],
			"min":[
				-1.2747995853424072,
				2.3121495246887207,
				-0.13688378036022186
			],
			"type":"VEC3"
		},
		{
			"bufferView":1,
			"componentType":5126,
			"count":40,
			"type":"VEC3"
		},
		{
			"bufferView":2,
			"componentType":5126,
			"count":40,
			"type":"VEC2"
		},
		{
			"bufferView":3,
			"componentType":5121,
			"count":40,
			"type":"VEC4"
		},
		{
			"bufferView":4,
			"componentType":5126,
			"count":40,
			"type":"VEC4"
		},
		{
			"bufferView":5,
			"componentType":5123,
			"count":72,
			"type":"SCALAR"
		},
		{
			"bufferView":6,
			"componentType":5126,
			"count":12,
			"type":"MAT4"
		},
		{
			"bufferView":7,
			"componentType":5126,
			"count":40,
			"max":[
				1.2242846488952637,
				2.569418430328369,
				0.11360020935535431
			],
			"min":[
				0.1681721806526184,
				2.3121495246887207,
				-0.13688378036022186
			],
			"type":"VEC3"
		},
		{
			"bufferView":8,
			"componentType":5126,
			"count":40,
			"type":"VEC3"
		},
		{
			"bufferView":9,
			"componentType":5126,
			"count":40,
			"type":"VEC2"
		},
		{
			"bufferView":10,
			"componentType":5121,
			"count":40,
			"type":"VEC4"
		},
		{
			"bufferView":11,
			"componentType":5126,
			"count":40,
			"type":"VEC4"
		},
		{
			"bufferView":12,
			"componentType":5126,
			"count":56,
			"max":[
				0.10128962993621826,
				2.616588592529297,
				0.11360017955303192
			],
			"min":[
				-0.1559780240058899,
				1.221732258796692,
				-0.13688381016254425
			],
			"type":"VEC3"
		},
		{
			"bufferView":13,
			"componentType":5126,
			"count":56,
			"type":"VEC3"
		},
		{
			"bufferView":14,
			"componentType":5126,
			"count":56,
			"type":"VEC2"
		},
		{
			"bufferView":15,
			"componentType":5121,
			"count":56,
			"type":"VEC4"
		},
		{
			"bufferView":16,
			"componentType":5126,
			"count":56,
			"type":"VEC4"
		},
		{
			"bufferView":17,
			"componentType":5123,
			"count":132,
			"type":"SCALAR"
		},
		{
			"bufferView":18,
			"componentType":5126,
			"count":480,
			"max":[
				0.34676069021224976,
				3.2410736083984375,
				0.3624630570411682
			],
			"min":[
				-0.401449054479599,
				2.492863655090332,
				-0.38574671745300293
			],
			"type":"VEC3"
		},
		{
			"bufferView":19,
			"componentType":5126,
			"count":480,
			"type":"VEC3"
		},
		{
			"bufferView":20,
			"componentType":5126,
			"count":480,
			"type":"VEC2"
		},
		{
			"bufferView":21,
			"componentType":5121,
			"count":480,
			"type":"VEC4"
		},
		{
			"bufferView":22,
			"componentType":5126,
			"count":480,
			"type":"VEC4"
		},
		{
			"bufferView":23,
			"componentType":5123,
			"count":672,
			"type":"SCALAR"
		},
		{
			"bufferView":24,
			"componentType":5126,
			"count":40,
			"max":[
				-0.221004918217659,
				1.3924024105072021,
				0.11359994113445282
			],
			"min":[
				-0.4782754182815552,
				-0.05280369520187378,
				-0.13688404858112335
			],
			"type":"VEC3"
		},
		{
			"bufferView":25,
			"componentType":5126,
			"count":40,
			"type":"VEC3"
		},
		{
			"bufferView":26,
			"componentType":5126,
			"count":40,
			"type":"VEC2"
		},
		{
			"bufferView":27,
			"componentType":5121,
			"count":40,
			"type":"VEC4"
		},
		{
			"bufferView":28,
			"componentType":5126,
			"count":40,
			"type":"VEC4"
		},
		{
			"bufferView":29,
			"componentType":5123,
			"count":72,
			"type":"SCALAR"
		},
		{
			"bufferView":30,
			"componentType":5126,
			"count":40,
			"max":[
				0.41895705461502075,
				1.3924024105072021,
				0.11359994113445282
			],
			"min":[
				0.16168658435344696,
				-0.05280369520187378,
				-0.13688404858112335
			],
			"type":"VEC3"
		},
		{
			"bufferView":31,
			"componentType":5126,
			"count":40,
			"type":"VEC3"
		},
		{
			"bufferView":32,
			"componentType":5126,
			"count":40,
			"type":"VEC2"
		},
		{
			"bufferView":33,
			"componentType":5121,
			"count":40,
			"type":"VEC4"
		},
		{
			"bufferView":34,
			"componentType":5126,
			"count":40,
			"type":"VEC4"
		},
		{
			"bufferView":35,
			"componentType":5126,
			"count":2,
			"max":[
				0.08333333333333333
			],
			"min":[
				0.041666666666666664
			],
			"type":"SCALAR"
		},
		{
			"bufferView":36,
			"componentType":5126,
			"count":2,
			"type":"VEC3"
		},
		{
			"bufferView":37,
			"componentType":5126,
			"count":2,
			"type":"VEC4"
		},
		{
			"bufferView":38,
			"componentType":5126,
			"count":2,
			"type":"VEC3"
		},
		{
			"bufferView":39,
			"componentType":5126,
			"count":2,
			"type":"VEC3"
		},
		{
			"bufferView":40,
			"componentType":5126,
			"count":2,
			"type":"VEC4"
		},
		{
			"bufferView":41,
			"componentType":5126,
			"count":2,
			"type":"VEC3"
		},
		{
			"bufferView":42,
			"componentType":5126,
			"count":2,
			"type":"VEC4"
		},
		{
			"bufferView":43,
			"componentType":5126,
			"count":2,
			"type":"VEC3"
		},
		{
			"bufferView":44,
			"componentType":5126,
			"count":2,
			"type":"VEC4"
		},
		{
			"bufferView":45,
			"componentType":5126,
			"count":2,
			"type":"VEC3"
		},
		{
			"bufferView":46,
			"componentType":5126,
			"count":2,
			"type":"VEC4"
		},
		{
			"bufferView":47,
			"componentType":5126,
			"count":2,
			"type":"VEC3"
		},
		{
			"bufferView":48,
			"componentType":5126,
			"count":2,
			"type":"VEC3"
		},
		{
			"bufferView":49,
			"componentType":5126,
			"count":2,
			"type":"VEC4"
		},
		{
			"bufferView":50,
			"componentType":5126,
			"count":2,
			"type":"VEC3"
		},
		{
			"bufferView":51,
			"componentType":5126,
			"count":2,
			"type":"VEC3"
		},
		{
			"bufferView":52,
			"componentType":5126,
			"count":2,
			"type":"VEC4"
		},
		{
			"bufferView":53,
			"componentType":5126,
			"count":2,
			"type":"VEC3"
		},
		{
			"bufferView":54,
			"componentType":5126,
			"count":2,
			"type":"VEC3"
		},
		{
			"bufferView":55,
			"componentType":5126,
			"count":2,
			"type":"VEC4"
		},
		{
			"bufferView":56,
			"componentType":5126,
			"count":2,
			"type":"VEC3"
		},
		{
			"bufferView":57,
			"componentType":5126,
			"count":2,
			"type":"VEC3"
		},
		{
			"bufferView":58,
			"componentType":5126,
			"count":2,
			"type":"VEC4"
		},
		{
			"bufferView":59,
			"componentType":5126,
			"count":2,
			"type":"VEC3"
		},
		{
			"bufferView":60,
			"componentType":5126,
			"count":2,
			"type":"VEC3"
		},
		{
			"bufferView":61,
			"componentType":5126,
			"count":2,
			"type":"VEC4"
		},
		{
			"bufferView":62,
			"componentType":5126,
			"count":2,
			"type":"VEC3"
		},
		{
			"bufferView":63,
			"componentType":5126,
			"count":2,
			"type":"VEC3"
		},
		{
			"bufferView":64,
			"componentType":5126,
			"count":2,
			"type":"VEC4"
		},
		{
			"bufferView":65,
			"componentType":5126,
			"count":2,
			"type":"VEC3"
		},
		{
			"bufferView":66,
			"componentType":5126,
			"count":2,
			"type":"VEC3"
		},
		{
			"bufferView":67,
			"componentType":5126,
			"count":2,
			"type":"VEC4"
		}
	],
	"bufferViews":[
		{
			"buffer":0,
			"byteLength":480,
			"byteOffset":0,
			"target":34962
		},
		{
			"buffer":0,
			"byteLength":480,
			"byteOffset":480,
			"target":34962
		},
		{
			"buffer":0,
			"byteLength":320,
			"byteOffset":960,
			"target":34962
		},
		{
			"buffer":0,
			"byteLength":160,
			"byteOffset":1280,
			"target":34962
		},
		{
			"buffer":0,
			"byteLength":640,
			"byteOffset":1440,
			"target":34962
		},
		{
			"buffer":0,
			"byteLength":144,
			"byteOffset":2080,
			"target":34963
		},
		{
			"buffer":0,
			"byteLength":768,
			"byteOffset":2224
		},
		{
			"buffer":0,
			"byteLength":480,
			"byteOffset":2992,
			"target":34962
		},
		{
			"buffer":0,
			"byteLength":480,
			"byteOffset":3472,
			"target":34962
		},
		{
			"buffer":0,
			"byteLength":320,
			"byteOffset":3952,
			"target":34962
		},
		{
			"buffer":0,
			"byteLength":160,
			"byteOffset":4272,
			"target":34962
		},
		{
			"buffer":0,
			"byteLength":640,
			"byteOffset":4432,
			"target":34962
		},
		{
			"buffer":0,
			"byteLength":672,
			"byteOffset":5072,
			"target":34962
		},
		{
			"buffer":0,
			"byteLength":672,
			"byteOffset":5744,
			"target":34962
		},
		{
			"buffer":0,
			"byteLength":448,
			"byteOffset":6416,
			"target":34962
		},
		{
			"buffer":0,
			"byteLength":224,
			"byteOffset":6864,
			"target":34962
		},
		{
			"buffer":0,
			"byteLength":896,
			"byteOffset":7088,
			"target":34962
		},
		{
			"buffer":0,
			"byteLength":264,
			"byteOffset":7984,
			"target":34963
		},
		{
			"buffer":0,
			"byteLength":5760,
			"byteOffset":8248,
			"target":34962
		},
		{
			"buffer":0,
			"byteLength":5760,
			"byteOffset":14008,
			"target":34962
		},
		{
			"buffer":0,
			"byteLength":3840,
			"byteOffset":19768,
			"target":34962
		},
		{
			"buffer":0,
			"byteLength":1920,
			"byteOffset":23608,
			"target":34962
		},
		{
			"buffer":0,
			"byteLength":7680,
			"byteOffset":25528,
			"target":34962
		},
		{
			"buffer":0,
			"byteLength":1344,
			"byteOffset":33208,
			"target":34963
		},
		{
			"buffer":0,
			"byteLength":480,
			"byteOffset":34552,
			"target":34962
		},
		{
			"buffer":0,
			"byteLength":480,
			"byteOffset":35032,
			"target":34962
		},
		{
			"buffer":0,
			"byteLength":320,
			"byteOffset":35512,
			"target":34962
		},
		{
			"buffer":0,
			"byteLength":160,
			"byteOffset":35832,
			"target":34962
		},
		{
			"buffer":0,
			"byteLength":640,
			"byteOffset":35992,
			"target":34962
		},
		{
			"buffer":0,
			"byteLength":144,
			"byteOffset":36632,
			"target":34963
		},
		{
			"buffer":0,
			"byteLength":480,
			"byteOffset":36776,
			"target":34962
		},
		{
			"buffer":0,
			"byteLength":480,
			"byteOffset":37256,
			"target":34962
		},
		{
			"buffer":0,
			"byteLength":320,
			"byteOffset":37736,
			"target":34962
		},
		{
			"buffer":0,
			"byteLength":160,
			"byteOffset":38056,
			"target":34962
		},
		{
			"buffer":0,
			"byteLength":640,
			"byteOffset":38216,
			"target":34962
		},
		{
			"buffer":0,
			"byteLength":8,
			"byteOffset":38856
		},
		{
			"buffer":0,
			"byteLength":24,
			"byteOffset":38864
		},
		{
			"buffer":0,
			"byteLength":32,
			"byteOffset":38888
		},
		{
			"buffer":0,
			"byteLength":24,
			"byteOffset":38920
		},
		{
			"buffer":0,
			"byteLength":24,
			"byteOffset":38944
		},
		{
			"buffer":0,
			"byteLength":32,
			"byteOffset":38968
		},
		{
			"buffer":0,
			"byteLength":24,
			"byteOffset":39000
		},
		{
			"buffer":0,
			"byteLength":32,
			"byteOffset":39024
		},
		{
			"buffer":0,
			"byteLength":24,
			"byteOffset":39056
		},
		{
			"buffer":0,
			"byteLength":32,
			"byteOffset":39080
		},
		{
			"buffer":0,
			"byteLength":24,
			"byteOffset":39112
		},
		{
			"buffer":0,
			"byteLength":32,
			"byteOffset":39136
		},
		{
			"buffer":0,
			"byteLength":24,
			"byteOffset":39168
		},
		{
			"buffer":0,
			"byteLength":24,
			"byteOffset":39192
		},
		{
			"buffer":0,
			"byteLength":32,
			"byteOffset":39216
		},
		{
			"buffer":0,
			"byteLength":24,
			"byteOffset":39248
		},
		{
			"buffer":0,
			"byteLength":24,
			"byteOffset":39272
		},
		{
			"buffer":0,
			"byteLength":32,
			"byteOffset":39296
		},
		{
			"buffer":0,
			"byteLength":24,
			"byteOffset":39328
		},
		{
			"buffer":0,
			"byteLength":24,
			"byteOffset":39352
		},
		{
			"buffer":0,
			"byteLength":32,
			"byteOffset":39376
		},
		{
			"buffer":0,
			"byteLength":24,
			"byteOffset":39408
		},
		{
			"buffer":0,
			"byteLength":24,
			"byteOffset":39432
		},
		{
			"buffer":0,
			"byteLength":32,
			"byteOffset":39456
		},
		{
			"buffer":0,
			"byteLength":24,
			"byteOffset":39488
		},
		{
			"buffer":0,
			"byteLength":24,
			"byteOffset":39512
		},
		{
			"buffer":0,
			"byteLength":32,
			"byteOffset":39536
		},
		{
			"buffer":0,
			"byteLength":24,
			"byteOffset":39568
		},
		{
			"buffer":0,
			"byteLength":24,
			"byteOffset":39592
		},
		{
			"buffer":0,
			"byteLength":32,
			"byteOffset":39616
		},
		{
			"buffer":0,
			"byteLength":24,
			"byteOffset":39648
		},
		{
			"buffer":0,
			"byteLength":24,
			"byteOffset":39672
		},
		{
			"buffer":0,
			"byteLength":32,
			"byteOffset":39696
		}
	],
	"samplers":[
		{
			"magFilter":9729,
			"minFilter":9987
		}
	],
	"buffers":[
		{
			"byteLength":39728,
			"uri":"npc.bin"
		}
	]
}
